<?xml version="1.0" standalone="no"?>
<!DOCTYPE svg PUBLIC "-//W3C//DTD SVG 20010904//EN"
 "http://www.w3.org/TR/2001/REC-SVG-20010904/DTD/svg10.dtd">
<svg version="1.0" xmlns="http://www.w3.org/2000/svg"
 width="250.000000pt" height="250.000000pt" viewBox="0 0 250.000000 250.000000"
 preserveAspectRatio="xMidYMid meet">
<metadata>
Created by potrace 1.16, written by Peter Selinger 2001-2019
</metadata>
<g transform="translate(0.000000,250.000000) scale(0.100000,-0.100000)"
fill="#000000" stroke="none">
<path d="M1410 2104 c-19 -8 -41 -21 -50 -28 -8 -7 -40 -16 -70 -20 -112 -13
-202 -62 -235 -127 -15 -29 -15 -29 12 -29 27 0 27 -1 -19 -40 -42 -37 -108
-122 -108 -142 0 -4 8 -8 18 -8 18 0 17 -5 -7 -77 -24 -71 -30 -80 -74 -107
-86 -53 -238 -47 -395 15 -52 21 -53 21 -67 3 -7 -11 -25 -54 -39 -96 -46
-138 -30 -250 40 -290 l31 -18 58 34 c86 53 177 80 265 80 82 1 160 -25 160
-52 0 -9 7 -23 15 -32 13 -14 11 -25 -11 -95 -24 -76 -54 -209 -54 -242 0 -10
6 -14 20 -10 24 6 24 7 5 -63 -15 -55 -12 -125 6 -136 6 -3 16 0 24 6 12 10
15 9 15 -9 0 -52 51 -92 91 -71 15 8 19 7 19 -4 0 -8 3 -21 6 -30 5 -14 -3
-16 -55 -16 -48 0 -63 -4 -68 -16 -11 -28 25 -44 96 -44 92 0 111 7 111 39 1
34 35 98 44 82 9 -14 63 -14 72 0 4 8 14 -2 26 -25 10 -20 25 -36 34 -36 10 0
14 -7 12 -22 -2 -16 -9 -22 -23 -21 -37 5 -65 -7 -65 -26 0 -29 26 -44 68 -38
61 8 92 24 92 47 0 16 5 20 18 16 24 -8 47 18 64 69 12 37 16 40 52 43 48 4
56 -6 56 -79 0 -64 -8 -71 -64 -62 -28 4 -37 2 -42 -12 -15 -38 57 -58 124
-34 30 10 42 32 42 77 0 12 6 22 14 22 7 0 19 6 25 14 11 13 17 12 44 -4 32
-19 77 -18 77 1 0 5 5 9 11 9 6 0 9 -14 7 -32 -3 -31 -6 -33 -43 -36 -60 -4
-68 -8 -56 -31 17 -31 63 -35 121 -10 46 20 51 25 45 47 -3 13 -9 38 -12 56
-6 30 -6 31 14 13 26 -23 50 -22 63 3 8 15 17 19 34 14 52 -13 96 44 96 124 0
21 9 63 20 95 34 96 23 216 -38 440 -14 50 -16 81 -11 120 4 28 8 82 8 120 1
37 4 67 7 67 3 0 20 -11 36 -25 24 -20 33 -23 44 -14 19 15 18 60 -3 110 -27
69 -143 252 -176 280 l-32 27 51 -5 c28 -3 54 -1 57 4 13 21 -64 93 -136 127
-65 32 -193 66 -247 66 -11 0 -20 5 -20 10 0 6 5 10 10 10 6 0 10 6 10 14 0
27 -212 35 -270 10z m200 -24 c0 -5 -7 -10 -16 -10 -9 0 -14 -6 -12 -12 3 -7
49 -20 109 -30 57 -10 127 -25 154 -33 49 -16 155 -80 155 -95 0 -4 -22 -5
-49 -2 -72 7 -75 -11 -8 -69 39 -35 73 -80 120 -161 36 -62 69 -126 73 -143
l7 -30 -36 28 c-30 22 -63 35 -68 25 -1 -2 -5 -52 -8 -113 -7 -110 -7 -110
-22 -75 -9 19 -24 57 -33 83 -10 27 -28 60 -41 75 -19 22 -25 24 -39 13 -8 -7
-18 -28 -22 -47 -7 -40 -19 -44 -28 -9 -6 24 -29 34 -40 16 -7 -11 19 -74 39
-95 23 -23 42 -10 54 40 6 25 16 42 20 39 5 -3 17 -29 27 -58 21 -64 41 -106
64 -132 9 -11 34 -85 54 -165 44 -175 48 -285 16 -377 -11 -32 -20 -76 -20
-98 0 -59 -24 -89 -66 -82 -28 5 -36 2 -45 -15 -11 -21 -12 -20 -30 15 -18 35
-45 57 -68 57 -21 0 -51 -41 -51 -69 0 -42 -12 -45 -54 -11 -41 31 -63 30 -69
-3 -3 -18 -7 -15 -22 20 l-18 43 -70 0 c-74 0 -107 -15 -107 -50 0 -23 -30
-59 -36 -43 -3 7 -14 23 -24 35 -16 20 -21 21 -40 10 -26 -16 -36 -10 -45 25
-12 48 -22 54 -61 36 -31 -15 -35 -15 -53 1 -29 26 -46 14 -60 -39 -15 -61
-35 -54 -39 13 -3 43 -6 52 -22 52 -10 0 -22 -9 -25 -20 -3 -11 -15 -25 -25
-30 -26 -14 -40 13 -40 74 0 49 -19 63 -39 29 -20 -36 -24 0 -8 70 23 98 23
120 -3 112 -18 -6 -20 -3 -14 22 22 96 45 178 72 249 l30 81 -37 29 c-20 16
-58 37 -86 46 -84 29 -243 20 -319 -19 -28 -15 -29 -14 -22 9 3 12 9 48 12 78
l6 55 117 0 c131 0 178 11 247 58 33 23 52 44 63 74 18 47 48 83 105 124 32
24 45 28 77 23 27 -5 46 -2 62 9 24 15 24 15 36 -25 14 -47 51 -88 80 -88 21
0 74 57 66 70 -9 14 -34 0 -40 -21 -4 -10 -13 -19 -21 -19 -17 0 -53 73 -54
108 0 27 -10 28 -59 2 -21 -10 -41 -17 -44 -14 -8 8 11 65 28 84 8 9 12 19 9
23 -13 13 -45 -15 -68 -62 -20 -39 -31 -50 -58 -55 -23 -4 -51 -26 -91 -69
l-58 -62 6 40 c4 22 20 61 36 88 28 47 25 56 -12 37 -28 -16 -23 2 14 48 35
44 66 70 112 95 l30 16 -37 1 c-103 1 22 109 145 126 36 5 45 3 51 -11 6 -17
9 -16 34 8 48 46 81 57 170 57 48 0 82 -4 82 -10z m-1125 -630 c-3 -6 1 -7 9
-4 13 5 16 -2 16 -38 0 -58 -25 -130 -55 -158 -33 -31 -45 -18 -45 46 0 56 19
115 47 146 17 19 39 25 28 8z"/>
</g>
</svg>
